<svg aria-hidden="true" style="position: absolute; width: 0; height: 0; overflow: hidden;" version="1.1" xmlns="http://www.w3.org/2000/svg" xmlns:xlink="http://www.w3.org/1999/xlink">
<defs>
<symbol id="icon-location-outline" viewBox="0 0 24 24">
<path d="M12 5c1.609 0 3.12 0.614 4.254 1.73 1.126 1.107 1.746 2.579 1.746 4.14s-0.62 3.030-1.745 4.139l-4.255 4.184-4.254-4.186c-1.125-1.107-1.745-2.576-1.745-4.139s0.62-3.032 1.745-4.141c1.135-1.113 2.647-1.727 4.254-1.727M12 3c-2.047 0-4.096 0.768-5.657 2.305-3.124 3.074-3.124 8.057 0 11.131l5.657 5.563 5.657-5.565c3.124-3.072 3.124-8.056 0-11.129-1.561-1.537-3.609-2.305-5.657-2.305z"></path>
<path d="M12 8.499c0.668 0 1.296 0.26 1.768 0.731 0.976 0.976 0.976 2.562 0 3.537-0.473 0.472-1.1 0.731-1.768 0.731s-1.295-0.26-1.768-0.731c-0.976-0.976-0.976-2.562 0-3.537 0.473-0.471 1.101-0.731 1.768-0.731M12 7.499c-0.896 0-1.792 0.342-2.475 1.024-1.367 1.367-1.367 3.584 0 4.951 0.684 0.684 1.578 1.024 2.475 1.024s1.792-0.342 2.475-1.024c1.366-1.367 1.366-3.584 0-4.951-0.683-0.683-1.579-1.024-2.475-1.024z"></path>
</symbol>
<symbol id="icon-heart-outline" viewBox="0 0 24 24">
<path d="M12 20c-0.195 0-0.391-0.057-0.561-0.172-0.225-0.151-5.508-3.73-7.146-5.371-1.831-1.831-2.043-3.777-2.043-5.082 0-2.964 2.411-5.375 5.375-5.375 1.802 0 3.398 0.891 4.375 2.256 0.977-1.365 2.573-2.256 4.375-2.256 2.964 0 5.375 2.411 5.375 5.375 0 1.305-0.212 3.251-2.043 5.082-1.641 1.641-6.923 5.22-7.146 5.371-0.17 0.115-0.366 0.172-0.561 0.172zM7.625 6c-1.861 0-3.375 1.514-3.375 3.375 0 1.093 0.173 2.384 1.457 3.668 1.212 1.212 4.883 3.775 6.293 4.746 1.41-0.971 5.081-3.534 6.293-4.746 1.284-1.284 1.457-2.575 1.457-3.668 0-1.861-1.514-3.375-3.375-3.375s-3.375 1.514-3.375 3.375c0 0.552-0.447 1-1 1s-1-0.448-1-1c0-1.861-1.514-3.375-3.375-3.375z"></path>
</symbol>
<symbol id="icon-cake" viewBox="0 0 32 32">
<path d="M25.5 9c-0.295 0-0.58 0.037-0.857 0.097-0.123-1.821-1.624-3.264-3.476-3.264-0.415 0-0.808 0.085-1.177 0.218-1.15-1.828-3.172-3.051-5.49-3.051-3.522 0-6.373 2.807-6.48 6.303-0.469-0.193-0.981-0.303-1.52-0.303-2.209 0-4 1.791-4 4 0 2.152 1.703 3.894 3.833 3.982l1.604-1.604 1.622 1.622h0.758l1.621-1.622 1.621 1.622h0.758l1.621-1.622 1.621 1.622h0.758l1.621-1.622 1.621 1.622h0.758l1.621-1.622 1.616 1.616c2.183-0.029 3.946-1.803 3.946-3.994 0-2.209-1.791-4-4-4zM24 16.566l-1.434 1.434h-1.258l-1.371-1.371-1.371 1.371h-1.258l-1.371-1.371-1.371 1.371h-1.258l-1.371-1.371-1.371 1.371h-1.257l-1.371-1.371-1.372 1.371h-0.066l2.65 11h13.625l2.725-11h-0.066l-1.434-1.434zM11.5 28l-2.083-9h1l2.083 9h-1zM13.5 28l-1.062-9h1l1.062 9h-1zM16.5 28h-1v-9h1v9zM17.5 28l1.062-9h1l-1.062 9h-1zM20.5 28h-1l2.062-9h1l-2.062 9z"></path>
</symbol>
<symbol id="icon-heart" viewBox="0 0 32 32">
<path d="M24 12.977c-3.866 0-7 3.158-7 7.055 0 2.22 1.020 4.197 2.609 5.491-2.056 1.525-3.609 2.488-3.609 2.488s-14-8.652-14-15.622c0-4.2 2.583-8.399 7.5-8.399 4.5 0 6.5 4.296 6.5 4.296s1.75-4.296 6.5-4.296 7.416 4.115 7.416 8.399c0 0.958-0.272 1.943-0.716 2.932-1.281-1.436-3.134-2.344-5.2-2.344zM24 13.984c3.313 0 6 2.707 6 6.047s-2.687 6.048-6 6.048c-3.314 0-6-2.708-6-6.048s2.686-6.047 6-6.047zM21 21.039h2v2.016h2v-2.016h2v-2.016h-2v-2.016h-2v2.016h-2v2.016z"></path>
</symbol>
<symbol id="icon-magnifying-glass" viewBox="0 0 20 20">
<path d="M17.545 15.467l-3.779-3.779c0.57-0.935 0.898-2.035 0.898-3.21 0-3.417-2.961-6.377-6.378-6.377s-6.186 2.769-6.186 6.186c0 3.416 2.961 6.377 6.377 6.377 1.137 0 2.2-0.309 3.115-0.844l3.799 3.801c0.372 0.371 0.975 0.371 1.346 0l0.943-0.943c0.371-0.371 0.236-0.84-0.135-1.211zM4.004 8.287c0-2.366 1.917-4.283 4.282-4.283s4.474 2.107 4.474 4.474c0 2.365-1.918 4.283-4.283 4.283s-4.473-2.109-4.473-4.474z"></path>
</symbol>
<symbol id="icon-github" viewBox="0 0 20 20">
<path d="M13.18 11.309c-0.718 0-1.3 0.807-1.3 1.799 0 0.994 0.582 1.801 1.3 1.801s1.3-0.807 1.3-1.801c-0.001-0.992-0.582-1.799-1.3-1.799zM17.706 6.626c0.149-0.365 0.155-2.439-0.635-4.426 0 0-1.811 0.199-4.551 2.080-0.575-0.16-1.548-0.238-2.519-0.238-0.973 0-1.945 0.078-2.52 0.238-2.741-1.881-4.552-2.080-4.552-2.080-0.789 1.987-0.781 4.061-0.634 4.426-0.928 1.008-1.495 2.219-1.495 3.871 0 7.186 5.963 7.301 7.467 7.301 0.342 0 1.018 0.002 1.734 0.002s1.392-0.002 1.732-0.002c1.506 0 7.467-0.115 7.467-7.301 0-1.652-0.566-2.863-1.494-3.871zM10.028 16.915h-0.056c-3.771 0-6.709-0.449-6.709-4.115 0-0.879 0.31-1.693 1.047-2.369 1.227-1.127 3.305-0.531 5.662-0.531 0.010 0 0.020 0 0.029 0s0.018 0 0.027 0c2.357 0 4.436-0.596 5.664 0.531 0.735 0.676 1.045 1.49 1.045 2.369 0 3.666-2.937 4.115-6.709 4.115zM6.821 11.309c-0.718 0-1.3 0.807-1.3 1.799 0 0.994 0.582 1.801 1.3 1.801s1.301-0.807 1.301-1.801c0-0.992-0.582-1.799-1.301-1.799z"></path>
</symbol>
<symbol id="icon-home" viewBox="0 0 32 32">
<path d="M32 18.451l-16-12.42-16 12.42v-5.064l16-12.42 16 12.42zM28 18v12h-8v-8h-8v8h-8v-12l12-9z"></path>
</symbol>
</defs>
</svg>
