<svg aria-hidden="true" style="position: absolute; width: 0; height: 0; overflow: hidden;" version="1.1" xmlns="http://www.w3.org/2000/svg" xmlns:xlink="http://www.w3.org/1999/xlink">
<defs>
<symbol id="icon-heart-outlined" viewBox="0 0 20 20">
<path d="M17.19 4.156c-1.672-1.535-4.383-1.535-6.055 0l-1.135 1.041-1.136-1.041c-1.672-1.535-4.382-1.535-6.054 0-1.881 1.726-1.881 4.519 0 6.245l7.19 6.599 7.19-6.599c1.88-1.726 1.88-4.52 0-6.245zM16.124 9.375l-6.124 5.715-6.125-5.715c-0.617-0.567-0.856-1.307-0.856-2.094s0.138-1.433 0.756-1.999c0.545-0.501 1.278-0.777 2.063-0.777s1.517 0.476 2.062 0.978l2.1 1.825 2.099-1.826c0.546-0.502 1.278-0.978 2.063-0.978s1.518 0.276 2.063 0.777c0.618 0.566 0.755 1.212 0.755 1.999s-0.238 1.528-0.856 2.095z"></path>
</symbol>
<symbol id="icon-magnifying-glass" viewBox="0 0 20 20">
<path d="M17.545 15.467l-3.779-3.779c0.57-0.935 0.898-2.035 0.898-3.21 0-3.417-2.961-6.377-6.378-6.377s-6.186 2.769-6.186 6.186c0 3.416 2.961 6.377 6.377 6.377 1.137 0 2.2-0.309 3.115-0.844l3.799 3.801c0.372 0.371 0.975 0.371 1.346 0l0.943-0.943c0.371-0.371 0.236-0.84-0.135-1.211zM4.004 8.287c0-2.366 1.917-4.283 4.282-4.283s4.474 2.107 4.474 4.474c0 2.365-1.918 4.283-4.283 4.283s-4.473-2.109-4.473-4.474z"></path>
</symbol>
<symbol id="icon-github" viewBox="0 0 20 20">
<path d="M13.18 11.309c-0.718 0-1.3 0.807-1.3 1.799 0 0.994 0.582 1.801 1.3 1.801s1.3-0.807 1.3-1.801c-0.001-0.992-0.582-1.799-1.3-1.799zM17.706 6.626c0.149-0.365 0.155-2.439-0.635-4.426 0 0-1.811 0.199-4.551 2.080-0.575-0.16-1.548-0.238-2.519-0.238-0.973 0-1.945 0.078-2.52 0.238-2.741-1.881-4.552-2.080-4.552-2.080-0.789 1.987-0.781 4.061-0.634 4.426-0.928 1.008-1.495 2.219-1.495 3.871 0 7.186 5.963 7.301 7.467 7.301 0.342 0 1.018 0.002 1.734 0.002s1.392-0.002 1.732-0.002c1.506 0 7.467-0.115 7.467-7.301 0-1.652-0.566-2.863-1.494-3.871zM10.028 16.915h-0.056c-3.771 0-6.709-0.449-6.709-4.115 0-0.879 0.31-1.693 1.047-2.369 1.227-1.127 3.305-0.531 5.662-0.531 0.010 0 0.020 0 0.029 0s0.018 0 0.027 0c2.357 0 4.436-0.596 5.664 0.531 0.735 0.676 1.045 1.49 1.045 2.369 0 3.666-2.937 4.115-6.709 4.115zM6.821 11.309c-0.718 0-1.3 0.807-1.3 1.799 0 0.994 0.582 1.801 1.3 1.801s1.301-0.807 1.301-1.801c0-0.992-0.582-1.799-1.301-1.799z"></path>
</symbol>
<symbol id="icon-camera" viewBox="0 0 32 32">
<path d="M27 17.047l-5-2.003v-4.008l5-2.004c0.553 0 1 0.449 1 1.002v6.012c0 0.553-0.447 1.001-1 1.001zM17.5 10.033c-2.485 0-4.5-2.019-4.5-4.509s2.015-4.509 4.5-4.509 4.5 2.019 4.5 4.509c0 2.491-2.015 4.509-4.5 4.509zM8.5 10.033c-2.485 0-4.5-2.019-4.5-4.509s2.015-4.509 4.5-4.509 4.5 2.019 4.5 4.509c0 2.491-2.015 4.509-4.5 4.509zM21 10.033v9.018h-5.582c-0.052 0.832-0.416 1.549-0.957 1.955h0.564l3.989 8.996h-0.994l-1.33-3h-2.66v4.998h-0.997v-4.998h-2.702l-1.351 3h-0.995l4.052-8.996h0.377c-0.541-0.406-0.905-1.123-0.957-1.955h-6.457v-9.018h16zM13.032 21.316c-0.041-0.010-0.079-0.031-0.119-0.045l-2.132 4.732h2.251v-4.687zM14.029 21.244v4.76h2.217l-2.126-4.795c-0.029 0.014-0.059 0.023-0.091 0.035z"></path>
</symbol>
<symbol id="icon-cake" viewBox="0 0 32 32">
<path d="M25.5 9c-0.295 0-0.58 0.037-0.857 0.097-0.123-1.821-1.624-3.264-3.476-3.264-0.415 0-0.808 0.085-1.177 0.218-1.15-1.828-3.172-3.051-5.49-3.051-3.522 0-6.373 2.807-6.48 6.303-0.469-0.193-0.981-0.303-1.52-0.303-2.209 0-4 1.791-4 4 0 2.152 1.703 3.894 3.833 3.982l1.604-1.604 1.622 1.622h0.758l1.621-1.622 1.621 1.622h0.758l1.621-1.622 1.621 1.622h0.758l1.621-1.622 1.621 1.622h0.758l1.621-1.622 1.616 1.616c2.183-0.029 3.946-1.803 3.946-3.994 0-2.209-1.791-4-4-4zM24 16.566l-1.434 1.434h-1.258l-1.371-1.371-1.371 1.371h-1.258l-1.371-1.371-1.371 1.371h-1.258l-1.371-1.371-1.371 1.371h-1.257l-1.371-1.371-1.372 1.371h-0.066l2.65 11h13.625l2.725-11h-0.066l-1.434-1.434zM11.5 28l-2.083-9h1l2.083 9h-1zM13.5 28l-1.062-9h1l1.062 9h-1zM16.5 28h-1v-9h1v9zM17.5 28l1.062-9h1l-1.062 9h-1zM20.5 28h-1l2.062-9h1l-2.062 9z"></path>
</symbol>
<symbol id="icon-location" viewBox="0 0 32 32">
<path d="M11.163 11.554c0-2.655 2.166-4.807 4.837-4.807s4.837 2.152 4.837 4.807-2.166 4.806-4.837 4.806-4.837-2.152-4.837-4.806zM7.777 12.154c0 2.011 2.454 6.25 2.454 6.25l5.769 9.614 5.438-9.613c0 0 2.785-4.27 2.785-6.25 0-4.513-3.682-8.171-8.223-8.171s-8.223 3.657-8.223 8.17z"></path>
</symbol>
<symbol id="icon-graduate" viewBox="0 0 42 32">
<path d="M32.639 17.561c0 0-4.592-4.682-10.92-4.682-6.183 0-12.295 4.682-12.295 4.682l-3.433-1.433v4.204c0.541 0.184 0.937 0.682 0.937 1.285 0 0.609-0.404 1.108-0.953 1.288l1.015 2.831h-2.996l1.024-2.855c-0.492-0.209-0.836-0.695-0.836-1.264 0-0.557 0.334-1.031 0.811-1.247v-4.659l-4.993-2.082 21.969-9.861 20.156 9.985-9.486 3.808zM21.469 15.251c6.366 0 9.486 3.37 9.486 3.37v6.99c0 0-3.245 2.621-9.985 2.621s-8.987-2.621-8.987-2.621v-6.99c0 0 3.12-3.37 9.486-3.37zM21.344 26.734c4.412 0 7.989-0.895 7.989-1.997s-3.577-1.997-7.989-1.997-7.988 0.895-7.988 1.997 3.576 1.997 7.988 1.997z"></path>
</symbol>
<symbol id="icon-soccer" viewBox="0 0 32 32">
<path d="M28.789 10.153c-0.006-0.015-0.014-0.030-0.021-0.046l0.029 0.005-0.008 0.041zM25.25 22.217l-4.668 0.194-2.438-4.285 2.523-4.556 4.887 0.162 2.086 4.259-2.39 4.226zM12.708 18.065l-2.449-4.431 2.56-4.271 5.221-0.080 2.564 4.253-2.52 4.547-5.376-0.018zM12.816 9.29l-1.93-3.323 2.564-3.128 4.475-0.143 2.385 2.954-2.283 3.56-5.211 0.080zM10.374 22.249l-4.135-0.404-1.992-3.983 1.738-4.038 4.205-0.161 2.45 4.433-2.266 4.153zM24.811 6.159l0.396-0.787c1.5 1.301 2.717 2.912 3.561 4.735l-1.482-0.236-2.475-3.712zM20.385 5.625l-2.389-2.957c0.059-0.072 0.377-0.459 0.383-0.465-2.141-0.358-4.094-0.175-5.381 0.127 0.009 0.006 0.319 0.398 0.383 0.479l-2.565 3.128-3.825 0.644-0.341-1.043-0.059 0.018c2.494-2.248 5.786-3.629 9.409-3.629 3.498 0 6.689 1.283 9.15 3.395l-0.404 0.804-4.361-0.501zM4.639 10.222l-1.608 0.379 0.018 0.070 1.58-0.372 1.3 3.472-1.744 4.053c-0.236-0.023-2.061-0.198-2.061-0.087 0.32 2.685 1.339 5.021 3.094 7.206l1.030-3.023 4.128 0.403 2.607 3.956-1.8 2.931c-5.395-1.971-9.256-7.133-9.256-13.21 0-4.146 1.803-7.86 4.655-10.436l0.346 1.062-2.289 3.596zM17.859 26.435l2.146 3.005 0.061-0.043-2.133-2.983 2.65-3.93 4.664-0.193c0.094 0.211 1.289 2.898 1.281 2.898 1.967-2.303 2.955-4.611 3.312-7.242-0.004 0-1.914 0.008-2.139 0.010l-2.088-4.268 1.684-3.741 1.486 0.237 0.004-0.031c0.816 1.782 1.283 3.758 1.283 5.847 0 7.772-6.301 14.073-14.072 14.073-1.669 0-3.262-0.306-4.747-0.839l1.797-2.925 4.811 0.125zM11.234 29.267l-0.062-0.038 0.012-0.020c0.023 0.009 0.047 0.017 0.070 0.025l-0.020 0.033zM6.581 5.56l0.011-0.004c-0.004 0.003-0.007 0.006-0.009 0.008l-0.002-0.004zM25.164 5.295l0.064 0.032-0.021 0.045c-0.020-0.017-0.037-0.034-0.057-0.051l0.014-0.026z"></path>
</symbol>
<symbol id="icon-badge" viewBox="0 0 32 32">
<path d="M26.887 16.699c1.152 8.047-5.704 8.654-6.696 9.115-2.233 0.779-4.026 2.248-4.026 2.248s-1.459-1.275-3.646-2.248c-1.033-0.426-8.568-1.094-7.414-9.115 0.243-1.155 1.578-2.127 1.578-4.072s-1.64-4.193-1.64-4.193l4.68-4.497c0 0 1.641 1.157 3.1 1.157s3.342-1.157 3.342-1.157 1.884 1.157 3.281 1.157c1.398 0 3.1-1.157 3.1-1.157l4.367 4.437c0 0-1.64 2.313-1.64 4.254s1.321 2.857 1.614 4.071zM16.099 7.936c-4.105 0-7.433 3.637-7.433 7.742s3.327 7.123 7.433 7.123c4.104 0 7.433-3.018 7.433-7.123-0.001-4.105-3.329-7.742-7.433-7.742zM16.14 22.367c-3.831 0-6.938-3.105-6.938-6.937 0-3.831 3.106-6.937 6.938-6.937s6.937 3.105 6.937 6.937c-0.001 3.832-3.106 6.937-6.937 6.937zM20.323 12.299c-0.396 0-0.715 0.318-0.722 0.712h-1.985l-1.042-1.805c0.199-0.129 0.339-0.343 0.339-0.598 0-0.4-0.324-0.725-0.725-0.725s-0.725 0.324-0.725 0.725c0 0.273 0.158 0.504 0.383 0.627l-1.025 1.775h-2.046c-0.007-0.394-0.326-0.712-0.722-0.712-0.4 0-0.725 0.324-0.725 0.724s0.324 0.725 0.725 0.725c0.129 0 0.244-0.043 0.349-0.102l1.026 1.777-1.039 1.799c-0.102-0.055-0.213-0.094-0.336-0.094-0.4 0-0.725 0.324-0.725 0.725 0 0.398 0.324 0.723 0.725 0.723 0.399 0 0.724-0.324 0.724-0.723 0-0.008-0.003-0.012-0.003-0.020h2.047l1.037 1.799c-0.231 0.119-0.395 0.355-0.395 0.635 0 0.4 0.324 0.725 0.725 0.725s0.725-0.324 0.725-0.725c0-0.262-0.146-0.479-0.352-0.605l1.055-1.828h1.956c0 0.008-0.004 0.012-0.004 0.020 0 0.398 0.325 0.723 0.725 0.723s0.725-0.324 0.725-0.723c0-0.4-0.324-0.725-0.725-0.725-0.095 0-0.186 0.020-0.269 0.053l-1.016-1.758 1.009-1.748c0.094 0.044 0.195 0.072 0.306 0.072 0.4 0 0.725-0.324 0.725-0.725 0-0.398-0.324-0.723-0.725-0.723z"></path>
</symbol>
<symbol id="icon-heart" viewBox="0 0 32 32">
<path d="M24 12.977c-3.866 0-7 3.158-7 7.055 0 2.22 1.020 4.197 2.609 5.491-2.056 1.525-3.609 2.488-3.609 2.488s-14-8.652-14-15.622c0-4.2 2.583-8.399 7.5-8.399 4.5 0 6.5 4.296 6.5 4.296s1.75-4.296 6.5-4.296 7.416 4.115 7.416 8.399c0 0.958-0.272 1.943-0.716 2.932-1.281-1.436-3.134-2.344-5.2-2.344zM24 13.984c3.313 0 6 2.707 6 6.047s-2.687 6.048-6 6.048c-3.314 0-6-2.708-6-6.048s2.686-6.047 6-6.047zM21 21.039h2v2.016h2v-2.016h2v-2.016h-2v-2.016h-2v2.016h-2v2.016z"></path>
</symbol>
<symbol id="icon-home" viewBox="0 0 32 32">
<path d="M32 18.451l-16-12.42-16 12.42v-5.064l16-12.42 16 12.42zM28 18v12h-8v-8h-8v8h-8v-12l12-9z"></path>
</symbol>
<symbol id="icon-library" viewBox="0 0 34 32">
<path d="M32 30v-2h-2v-12h2v-2h-6v2h2v12h-6v-12h2v-2h-6v2h2v12h-6v-12h2v-2h-6v2h2v12h-6v-12h2v-2h-6v2h2v12h-2v2h-2v2h34v-2h-2z"></path>
<path d="M16 0h2l16 10v2h-34v-2l16-10z"></path>
</symbol>
<symbol id="icon-heart1" viewBox="0 0 32 32">
<path d="M23.6 2c-3.363 0-6.258 2.736-7.599 5.594-1.342-2.858-4.237-5.594-7.601-5.594-4.637 0-8.4 3.764-8.4 8.401 0 9.433 9.516 11.906 16.001 21.232 6.13-9.268 15.999-12.1 15.999-21.232 0-4.637-3.763-8.401-8.4-8.401z"></path>
</symbol>
</defs>
</svg>
